<?xml version="1.0" encoding="utf-8"?>
<!DOCTYPE svg PUBLIC "-//W3C//DTD SVG 1.1//EN" "http://www.w3.org/Graphics/SVG/1.1/DTD/svg11.dtd">
<svg version="1.1" id="Work_x5F_Phone" xmlns="http://www.w3.org/2000/svg" xmlns:xlink="http://www.w3.org/1999/xlink" x="0px"
	 y="0px" width="30px" height="30px" viewBox="0 0 30 30" enable-background="new 0 0 30 30" xml:space="preserve">
<path fill="#FFFFFF" d="M22.91,20.65l-2.38-3.45c-0.38-0.55-0.86-0.25-1.13-0.1l-1.97,1.13c-0.55,0.31-1.04-0.2-1.51-0.71
	c-0.67-0.73-0.9-1.01-1.41-1.78c-0.55-0.74-0.73-1.06-1.2-1.95c-0.33-0.63-0.65-1.28-0.2-1.74l1.58-1.68
	c0.22-0.23,0.62-0.64,0.24-1.18L12.49,5.7c-0.38-0.54-0.54-0.96-1.52-0.5L9.81,5.81L9.33,6.08C8.11,6.74,8.04,7.03,8.07,8.54
	c0.01,0.68-0.04,1.52,0.33,2.62c0.78,2.32,2.04,4.56,3.51,6.65s3.12,4.03,4.97,5.49c0.88,0.7,1.57,1.19,2.16,1.43
	c1.24,0.51,1.68,0.31,2.64-0.74l0.38-0.42l0.86-1.1C23.11,22.14,23.11,20.91,22.91,20.65z"/>
</svg>
