<?xml version="1.0" encoding="utf-8"?>
<!DOCTYPE svg PUBLIC "-//W3C//DTD SVG 1.1//EN" "http://www.w3.org/Graphics/SVG/1.1/DTD/svg11.dtd">
<svg version="1.1" id="email_icon" xmlns="http://www.w3.org/2000/svg" xmlns:xlink="http://www.w3.org/1999/xlink" x="0px" y="0px"
	 width="30px" height="30px" viewBox="0 0 30 30" enable-background="new 0 0 30 30" xml:space="preserve">
<rect x="0" y="0" fill="#84B96C" width="30" height="30"/>
<path fill-rule="evenodd" clip-rule="evenodd" fill="#FFFFFF" d="M24.99,18.91v-7.93l-6.58,3.96L24.99,18.91z M5.14,20.96
	C5.43,21.57,6.09,22,6.86,22h16.22c0.76,0,1.42-0.43,1.71-1.04c0.1-0.22,0.2-0.06,0.2-0.32l-7.87-4.75l-2.15,1.3l-2.15-1.3
	l-7.83,4.75C4.99,20.9,5.04,20.74,5.14,20.96z M4.99,10.98v7.93l6.55-3.97L4.99,10.98z M6.86,8C6.09,8,5.43,8,5.14,8.61
	c-0.1,0.22-0.16,0.41-0.16,0.66l9.98,6.05l10.02-6.05c0-0.25-0.1-0.45-0.2-0.67C24.49,7.99,23.84,8,23.08,8H6.86z"/>
</svg>
