<?xml version="1.0" encoding="utf-8"?>
<!DOCTYPE svg PUBLIC "-//W3C//DTD SVG 1.1//EN" "http://www.w3.org/Graphics/SVG/1.1/DTD/svg11.dtd">
<svg version="1.1" id="email_icon" xmlns="http://www.w3.org/2000/svg" xmlns:xlink="http://www.w3.org/1999/xlink" x="0px" y="0px"
	 width="30px" height="30px" viewBox="0 0 30 30" enable-background="new 0 0 30 30" xml:space="preserve">
<path fill-rule="evenodd" clip-rule="evenodd" fill="#FFFFFF" d="M25.01,18.91v-7.93l-6.58,3.97L25.01,18.91z M5.16,20.95
	C5.45,21.57,6.11,22,6.88,22H23.1c0.76,0,1.42-0.43,1.71-1.04c0.1-0.22,0.2-0.06,0.2-0.32l-7.87-4.75l-2.15,1.3l-2.15-1.3
	l-7.83,4.75C5.01,20.9,5.06,20.74,5.16,20.95z M5.01,10.98v7.93l6.55-3.97L5.01,10.98z M6.88,8C6.11,8,5.45,8,5.16,8.61
	c-0.1,0.22-0.16,0.41-0.16,0.66l9.98,6.05l10.02-6.05c0-0.25-0.1-0.45-0.2-0.67C24.52,7.99,23.86,8,23.1,8H6.88z"/>
</svg>
