<?xml version="1.0" encoding="utf-8"?>
<!DOCTYPE svg PUBLIC "-//W3C//DTD SVG 1.1//EN" "http://www.w3.org/Graphics/SVG/1.1/DTD/svg11.dtd">
<svg version="1.1" id="work_x5F_phone_x5F_icon" xmlns="http://www.w3.org/2000/svg" xmlns:xlink="http://www.w3.org/1999/xlink"
	 x="0px" y="0px" width="30px" height="30px" viewBox="0 0 30 30" enable-background="new 0 0 30 30" xml:space="preserve">
<rect x="0" y="0" fill="#F1BF7E" width="30" height="30"/>
<path fill="#FFFFFF" d="M22.85,20.67l-2.38-3.45c-0.38-0.54-0.86-0.25-1.13-0.1l-1.96,1.13c-0.55,0.32-1.04-0.2-1.51-0.71
	c-0.66-0.73-0.9-1.01-1.41-1.78c-0.55-0.74-0.73-1.06-1.2-1.95c-0.33-0.62-0.65-1.27-0.2-1.74l1.59-1.67
	c0.21-0.23,0.62-0.64,0.24-1.18l-2.46-3.51c-0.38-0.54-0.54-0.96-1.52-0.5L9.75,5.83L9.27,6.1C8.05,6.77,7.98,7.06,8,8.57
	c0.01,0.68-0.04,1.52,0.33,2.61c0.78,2.32,2.05,4.56,3.51,6.65c1.46,2.09,3.11,4.03,4.97,5.49c0.88,0.7,1.57,1.19,2.16,1.43
	c1.24,0.51,1.68,0.31,2.63-0.74l0.38-0.42l0.87-1.09C23.05,22.16,23.05,20.94,22.85,20.67z"/>
</svg>
